<svg width="27" height="24" viewBox="0 0 27 24" fill="none" xmlns="http://www.w3.org/2000/svg">
<path d="M19.9583 0.666748H7.04167C6.70584 0.666748 6.38292 0.680082 6.07292 0.733415C2.74042 1.13341 0.583336 3.68008 0.583336 7.33341V16.6667C0.583336 20.6667 3.16667 23.3334 7.04167 23.3334H19.9583C23.8333 23.3334 26.4167 20.6667 26.4167 16.6667V7.33341C26.4167 3.33341 23.8333 0.666748 19.9583 0.666748ZM8.17834 15.3334C6.39584 15.3334 4.94917 13.8401 4.94917 12.0001C4.94917 10.1601 6.39584 8.66675 8.17834 8.66675C9.96084 8.66675 11.4075 10.1601 11.4075 12.0001C11.4075 13.8401 9.96084 15.3334 8.17834 15.3334ZM16.5742 15.6667H15.9283C15.3988 15.6667 14.9596 15.2134 14.9596 14.6667C14.9596 14.1201 15.3988 13.6667 15.9283 13.6667H16.5742C17.1038 13.6667 17.5429 14.1201 17.5429 14.6667C17.5429 15.2134 17.1038 15.6667 16.5742 15.6667ZM21.095 15.6667H20.4492C19.9196 15.6667 19.4804 15.2134 19.4804 14.6667C19.4804 14.1201 19.9196 13.6667 20.4492 13.6667H21.095C21.6246 13.6667 22.0638 14.1201 22.0638 14.6667C22.0638 15.2134 21.6246 15.6667 21.095 15.6667ZM21.095 10.3334H15.9283C15.3988 10.3334 14.9596 9.88008 14.9596 9.33341C14.9596 8.78675 15.3988 8.33341 15.9283 8.33341H21.095C21.6246 8.33341 22.0638 8.78675 22.0638 9.33341C22.0638 9.88008 21.6246 10.3334 21.095 10.3334Z" fill="#202020"/>
</svg>
